<svg xmlns="http://www.w3.org/2000/svg" width="799.828" height="1199.995" viewBox="0 0 1581 2372">
  <metadata><?xpacket begin="﻿" id="W5M0MpCehiHzreSzNTczkc9d"?>
<x:xmpmeta xmlns:x="adobe:ns:meta/" x:xmptk="Adobe XMP Core 5.6-c140 79.160451, 2017/05/06-01:08:21">
   <rdf:RDF xmlns:rdf="http://www.w3.org/1999/02/22-rdf-syntax-ns#">
      <rdf:Description rdf:about=""/>
   </rdf:RDF>
</x:xmpmeta>                
<?xpacket end="w"?></metadata>
<defs>
    <style>
      .cls-1 {
        fill: #65288f;
        fill-rule: evenodd;
      }
    </style>
  </defs>
  <path id="Y" data-name="Y" class="cls-1" d="M5.6,547.37s10.638,48.135,53.668,5.937,141.6-280,259.953-249.8,75.175,191.669,74.164,320.544c-0.948,120.916-37.269,442.937,288.885,590.717S1191.04,1001.6,1191.04,1001.6s34.82-86.456-67.4-48.824-310.931,68.044-393.2-36.463S640.788,651.627,639.147,541.2s72.406-444.452-68.69-510.928C365.761-66.17-53.351,57.593,5.6,547.37Zm530.484,1110.3s40.841-32.78,33.85,20.56-56.8,317.57-62.471,369.14,30.841,35.32,41.09,32.4,196.876-109.25,335.008-298.86c136.932-187.96,326.732-425.3,386.162-822.455,42.59-284.7,33.59-852.867,31.49-930.714-0.49-18.361,8.57-20.816,22.04-22.246,43.97-4.667,121.12-7.521,215.42,4.524,27.34,3.491,32.09,7.385,33.48,30.18,3.74,61.513,21.5,421.106-7.18,750.689C1479.76,1770.37,937.733,2155.44,590.658,2333.61c-146.548,75.23-260.886,32.35-280.141-63.74C284,2137.54,266.745,1970.62,536.081,1657.67Z"/>
</svg>
